<svg width="318" height="115" viewBox="0 0 318 115" fill="none" xmlns="http://www.w3.org/2000/svg">
<g filter="url(#filter0_d_19_314)">
<path d="M46.0654 41.5527C47.8428 41.5527 49.3923 41.8376 50.7139 42.4072C52.0355 42.9541 53.0609 43.7174 53.79 44.6973C54.542 45.6771 54.918 46.805 54.918 48.0811C54.918 49.2204 54.6104 50.2344 53.9951 51.123C53.4027 52.0117 52.6507 52.6953 51.7393 53.1738C52.4229 53.3561 53.0837 53.6637 53.7217 54.0967C54.3597 54.5068 54.8838 55.0651 55.2939 55.7715C55.7041 56.4551 55.9092 57.3324 55.9092 58.4033C55.9092 59.6794 55.5218 60.8529 54.7471 61.9238C53.9723 62.972 52.89 63.8151 51.5 64.4531C50.11 65.0911 48.4922 65.4102 46.6465 65.4102C45.6439 65.4102 44.5615 65.3646 43.3994 65.2734C42.2373 65.2051 41.1322 65.1025 40.084 64.9658C39.0358 64.8063 38.1471 64.6468 37.418 64.4873V42.4072C38.694 42.1338 40.0726 41.9287 41.5537 41.792C43.0348 41.6325 44.5387 41.5527 46.0654 41.5527ZM46.0654 45.8936C44.6071 45.8936 43.3083 46.0075 42.1689 46.2354V51.7725H46.4414C47.6035 51.7725 48.515 51.4876 49.1758 50.918C49.8594 50.3483 50.2012 49.6191 50.2012 48.7305C50.2012 47.819 49.791 47.124 48.9707 46.6455C48.1732 46.1442 47.2048 45.8936 46.0654 45.8936ZM42.1689 60.7275C42.807 60.887 43.5361 61.001 44.3564 61.0693C45.1995 61.1149 45.8717 61.1377 46.373 61.1377C47.6947 61.1377 48.777 60.8757 49.6201 60.3516C50.486 59.8275 50.9189 59.0869 50.9189 58.1299C50.9189 57.1729 50.4746 56.4665 49.5859 56.0107C48.6973 55.5322 47.6263 55.293 46.373 55.293H42.1689V60.7275ZM70.4697 42.0996C71.5407 42.0996 72.5889 42.2477 73.6143 42.5439C74.6396 42.8402 75.5625 43.2959 76.3828 43.9111C77.2259 44.5264 77.8867 45.3011 78.3652 46.2354C78.8665 47.1468 79.1172 48.2406 79.1172 49.5166C79.1172 50.861 78.7754 52.0231 78.0918 53.0029C77.431 53.96 76.5537 54.7119 75.46 55.2588C74.3662 55.7829 73.1813 56.0905 71.9053 56.1816L80.1426 65H73.8877L65.9238 55.6348V65H61.1729V42.0996H70.4697ZM65.9238 46.543V52.3193C66.4707 52.5016 67.0745 52.6497 67.7354 52.7637C68.4189 52.8548 69.1025 52.9004 69.7861 52.9004C71.1533 52.9004 72.2357 52.627 73.0332 52.0801C73.8535 51.5104 74.2637 50.7129 74.2637 49.6875C74.2637 48.571 73.8307 47.7734 72.9648 47.2949C72.1217 46.7936 71.085 46.543 69.8545 46.543H65.9238ZM102.325 42.0996L93.4727 56.3525V65H88.6191V56.5918L79.7324 42.0996H85.3037L91.0117 51.7383L96.7539 42.0996H102.325ZM114.493 41.9287L125.157 65H119.586L117.843 60.7275H108.785L107.042 65H101.471L112.135 41.9287H114.493ZM113.331 49.6875L110.46 56.6943H116.202L113.331 49.6875ZM148.946 42.0996V65.1709H147.237L133.668 51.1914V65H128.917V41.9287H130.626L144.195 56.1133V42.0996H148.946ZM172.291 41.6553C173.613 41.6553 174.82 41.8376 175.914 42.2021C177.008 42.5667 177.931 42.9883 178.683 43.4668V48.1494C177.862 47.6481 176.985 47.181 176.051 46.748C175.117 46.3151 174.057 46.0986 172.872 46.0986C172.28 46.0986 171.687 46.1898 171.095 46.3721C170.525 46.5544 170.047 46.8278 169.659 47.1924C169.295 47.557 169.112 48.0241 169.112 48.5938C169.112 49.3457 169.443 49.9154 170.104 50.3027C170.764 50.6901 171.573 51.0775 172.53 51.4648L175.333 52.627C176.928 53.3105 178.102 54.1423 178.854 55.1221C179.605 56.1019 179.981 57.2184 179.981 58.4717C179.981 59.8389 179.583 61.0465 178.785 62.0947C178.01 63.1201 176.962 63.929 175.641 64.5215C174.342 65.1139 172.895 65.4102 171.3 65.4102C169.955 65.4102 168.668 65.1823 167.438 64.7266C166.207 64.2708 165.136 63.7126 164.225 63.0518V58.3691C165.227 59.0983 166.332 59.7135 167.54 60.2148C168.748 60.7161 170.035 60.9668 171.402 60.9668C172.359 60.9668 173.18 60.7845 173.863 60.4199C174.547 60.0326 174.889 59.4629 174.889 58.7109C174.889 58.1185 174.604 57.64 174.034 57.2754C173.487 56.888 172.883 56.569 172.223 56.3184L168.702 54.9512C166.925 54.2676 165.717 53.3789 165.079 52.2852C164.464 51.1686 164.156 49.9382 164.156 48.5938C164.156 47.2038 164.532 45.9961 165.284 44.9707C166.059 43.9225 167.062 43.1136 168.292 42.5439C169.522 41.9515 170.855 41.6553 172.291 41.6553ZM197.071 60.7275V65H184.596V60.7275H188.458V46.3721H184.596V42.0996H197.071V46.3721H193.209V60.7275H197.071ZM208.487 42.0996V60.7275H219.938V65H203.736V42.0996H208.487ZM244.239 42.0996L233.575 65.1709H231.217L220.553 42.0996H226.124L232.379 57.2412L238.668 42.0996H244.239ZM254.015 41.9287L264.679 65H259.107L257.364 60.7275H248.307L246.563 65H240.992L251.656 41.9287H254.015ZM252.853 49.6875L249.981 56.6943H255.724L252.853 49.6875Z" fill="white"/>
</g>
<defs>
<filter id="filter0_d_19_314" x="0.31797" y="0.452736" width="317.461" height="114.057" filterUnits="userSpaceOnUse" color-interpolation-filters="sRGB">
<feFlood flood-opacity="0" result="BackgroundImageFix"/>
<feColorMatrix in="SourceAlpha" type="matrix" values="0 0 0 0 0 0 0 0 0 0 0 0 0 0 0 0 0 0 127 0" result="hardAlpha"/>
<feOffset dx="8" dy="4"/>
<feGaussianBlur stdDeviation="22.55"/>
<feComposite in2="hardAlpha" operator="out"/>
<feColorMatrix type="matrix" values="0 0 0 0 0.168627 0 0 0 0 0.658824 0 0 0 0 0.290196 0 0 0 0.5 0"/>
<feBlend mode="normal" in2="BackgroundImageFix" result="effect1_dropShadow_19_314"/>
<feBlend mode="normal" in="SourceGraphic" in2="effect1_dropShadow_19_314" result="shape"/>
</filter>
</defs>
</svg>
