<svg width="591" height="585" viewBox="0 0 591 585" fill="none" xmlns="http://www.w3.org/2000/svg">
<g filter="url(#filter0_d_26_51)">
<path d="M133.204 160.962C131.17 155.149 136.192 149.315 142.243 150.46L445.353 207.841C451.404 208.986 453.946 216.252 449.928 220.92L248.68 454.731C244.663 459.398 237.099 457.966 235.066 452.153L133.204 160.962Z" fill="#2BA84A"/>
</g>
<g filter="url(#filter1_d_26_51)">
<path d="M104.818 211.709C101.072 206.821 104.022 199.711 110.128 198.911L416.006 158.827C422.113 158.027 426.795 164.137 424.435 169.825L306.21 454.765C303.85 460.453 296.217 461.454 292.471 456.566L104.818 211.709Z" fill="#2BA84A"/>
</g>
<defs>
<filter id="filter0_d_26_51" x="29.8442" y="33.4149" width="560.928" height="549" filterUnits="userSpaceOnUse" color-interpolation-filters="sRGB">
<feFlood flood-opacity="0" result="BackgroundImageFix"/>
<feColorMatrix in="SourceAlpha" type="matrix" values="0 0 0 0 0 0 0 0 0 0 0 0 0 0 0 0 0 0 127 0" result="hardAlpha"/>
<feOffset dx="18" dy="4"/>
<feGaussianBlur stdDeviation="60.45"/>
<feComposite in2="hardAlpha" operator="out"/>
<feColorMatrix type="matrix" values="0 0 0 0 0.168627 0 0 0 0 0.658824 0 0 0 0 0.290196 0 0 0 0.5 0"/>
<feBlend mode="normal" in2="BackgroundImageFix" result="effect1_dropShadow_26_51"/>
<feBlend mode="normal" in="SourceGraphic" in2="effect1_dropShadow_26_51" result="shape"/>
</filter>
<filter id="filter1_d_26_51" x="0.258568" y="41.8559" width="563.699" height="542.745" filterUnits="userSpaceOnUse" color-interpolation-filters="sRGB">
<feFlood flood-opacity="0" result="BackgroundImageFix"/>
<feColorMatrix in="SourceAlpha" type="matrix" values="0 0 0 0 0 0 0 0 0 0 0 0 0 0 0 0 0 0 127 0" result="hardAlpha"/>
<feOffset dx="18" dy="4"/>
<feGaussianBlur stdDeviation="60.45"/>
<feComposite in2="hardAlpha" operator="out"/>
<feColorMatrix type="matrix" values="0 0 0 0 0.168627 0 0 0 0 0.658824 0 0 0 0 0.290196 0 0 0 0.5 0"/>
<feBlend mode="normal" in2="BackgroundImageFix" result="effect1_dropShadow_26_51"/>
<feBlend mode="normal" in="SourceGraphic" in2="effect1_dropShadow_26_51" result="shape"/>
</filter>
</defs>
</svg>
